HIERARCHY
ROOT Hips
{
	OFFSET 0.000000 0.000000 0.000000
	CHANNELS 6 Xposition Yposition Zposition Xrotation Yrotation Zrotation
	JOINT LeftUpLeg_virtual
	{
		OFFSET 0.000000 0.000000 0.000000
		CHANNELS 3 Xrotation Yrotation Zrotation
		JOINT LeftUpLeg
		{
			OFFSET 15.427100 -6.655098 0.678600
			CHANNELS 3 Xrotation Yrotation Zrotation
			JOINT LeftLeg
			{
				OFFSET 4.081073 -39.591068 13.024000
				CHANNELS 3 Xrotation Yrotation Zrotation
				JOINT LeftFoot
				{
					OFFSET -4.081074 -37.707932 -15.979700
					CHANNELS 3 Xrotation Yrotation Zrotation
					JOINT LeftToeBase
					{
						OFFSET 5.346399 -15.068900 20.645000
						CHANNELS 3 Xrotation Yrotation Zrotation
						JOINT LeftToe_End
						{
							OFFSET 2.754700 0.931300 11.300900
							CHANNELS 3 Xrotation Yrotation Zrotation
							End Site
							{
								OFFSET 0 0 0
							}
						}
					}
				}
			}
		}
	}
	JOINT RightUpLeg_virtual
	{
		OFFSET 0.000000 0.000000 0.000000
		CHANNELS 3 Xrotation Yrotation Zrotation
		JOINT RightUpLeg
		{
			OFFSET -15.569500 -6.655098 0.678600
			CHANNELS 3 Xrotation Yrotation Zrotation
			JOINT RightLeg
			{
				OFFSET -4.081825 -39.591045 13.023800
				CHANNELS 3 Xrotation Yrotation Zrotation
				JOINT RightFoot
				{
					OFFSET 4.081824 -37.707954 -15.979600
					CHANNELS 3 Xrotation Yrotation Zrotation
					JOINT RightToeBase
					{
						OFFSET -5.346400 -15.068900 20.645000
						CHANNELS 3 Xrotation Yrotation Zrotation
						JOINT RightToe_End
						{
							OFFSET -2.754700 0.931300 11.300900
							CHANNELS 3 Xrotation Yrotation Zrotation
							End Site
							{
								OFFSET 0 0 0
							}
						}
					}
				}
			}
		}
	}
	JOINT Spine_virtual
	{
		OFFSET 0.000000 0.000000 0.000000
		CHANNELS 3 Xrotation Yrotation Zrotation
		JOINT Spine
		{
			OFFSET -0.279200 12.230698 -2.892100
			CHANNELS 3 Xrotation Yrotation Zrotation
			JOINT Spine1
			{
				OFFSET -0.232667 10.192268 -1.242267
				CHANNELS 3 Xrotation Yrotation Zrotation
				JOINT Spine1_split
				{
					OFFSET -0.232667 10.192268 -1.242267
					CHANNELS 3 Xrotation Yrotation Zrotation
					JOINT Spine2
					{
						OFFSET -0.232667 10.192268 -1.242267
						CHANNELS 3 Xrotation Yrotation Zrotation
						JOINT Neck_virtual
						{
							OFFSET 0.000000 0.000000 0.000000
							CHANNELS 3 Xrotation Yrotation Zrotation
							JOINT Neck
							{
								OFFSET -0.418800 17.814194 8.416900
								CHANNELS 3 Xrotation Yrotation Zrotation
								JOINT Head
								{
									OFFSET 0.000000 7.031097 3.806800
									CHANNELS 3 Xrotation Yrotation Zrotation
									JOINT HeadTop_End
									{
										OFFSET 0.000000 24.646606 12.978600
										CHANNELS 3 Xrotation Yrotation Zrotation
										End Site
										{
											OFFSET 0 0 0
										}
									}
								}
							}
						}
						JOINT LeftShoulder_virtual
						{
							OFFSET 0.000000 0.000000 0.000000
							CHANNELS 3 Xrotation Yrotation Zrotation
							JOINT LeftShoulder
							{
								OFFSET 8.476499 7.247704 -3.868750
								CHANNELS 3 Xrotation Yrotation Zrotation
								JOINT LeftShoulder_split
								{
									OFFSET 8.476499 7.247704 -3.868750
									CHANNELS 3 Xrotation Yrotation Zrotation
									JOINT LeftArm
									{
										OFFSET 9.308998 -2.777710 0.208600
										CHANNELS 3 Xrotation Yrotation Zrotation
										JOINT LeftForeArm
										{
											OFFSET 29.972298 0.000000 0.000000
											CHANNELS 3 Xrotation Yrotation Zrotation
											JOINT LeftHand
											{
												OFFSET 26.026505 0.000000 0.000000
												CHANNELS 3 Xrotation Yrotation Zrotation
												End Site
												{
													OFFSET 0 0 0
												}
											}
										}
									}
								}
							}
						}
						JOINT RightShoulder_virtual
						{
							OFFSET 0.000000 0.000000 0.000000
							CHANNELS 3 Xrotation Yrotation Zrotation
							JOINT RightShoulder
							{
								OFFSET -7.570500 7.247704 -3.868750
								CHANNELS 3 Xrotation Yrotation Zrotation
								JOINT RightShoulder_split
								{
									OFFSET -7.570500 7.247704 -3.868750
									CHANNELS 3 Xrotation Yrotation Zrotation
									JOINT RightArm
									{
										OFFSET -9.308998 -2.777710 0.208500
										CHANNELS 3 Xrotation Yrotation Zrotation
										JOINT RightForeArm
										{
											OFFSET -29.972300 0.000000 0.000000
											CHANNELS 3 Xrotation Yrotation Zrotation
											JOINT RightHand
											{
												OFFSET -26.026505 0.000000 0.000000
												CHANNELS 3 Xrotation Yrotation Zrotation
												End Site
												{
													OFFSET 0 0 0
												}
											}
										}
									}
								}
							}
						}
					}
				}
			}
		}
	}
}
MOTION
Frames: 6
Frame Time: 0.03333333
2.712137 78.891838 -0.333626 0.000000 0.000000 0.000000 -29.939038 -57.393533 -13.474193 -19.816358 -1.701040 28.134306 46.155939 -17.040909 -5.470054 1.104858 4.085203 -20.095883 -12.866067 -1.882109 0.580564 0.000000 0.000000 0.000000 -27.611654 -53.642458 -11.408245 -20.138009 2.111870 -32.767180 52.653532 10.291832 -2.205576 -22.308332 -10.410081 23.279460 -3.265132 2.206376 -1.672223 0.000000 0.000000 0.000000 -26.568077 -46.259666 -12.327725 12.624779 5.844253 1.487199 13.241355 2.661740 -6.688515 1.573379 -1.568276 1.381483 0.000000 0.000000 0.000000 11.135835 2.353268 -4.805181 3.485232 -1.845177 0.320538 -18.152262 30.543001 -12.309063 0.000000 0.000000 0.000000 14.584418 1.649335 -4.538202 1.440573 -11.828544 6.537581 -8.900431 -1.472161 -2.090765 -25.823098 27.086150 -59.323574 170.637701 -50.885121 173.186044 0.000000 0.000000 0.000000 12.824216 1.754705 -3.964281 13.122716 27.862785 -0.624995 -6.982915 -2.390363 2.036190 -55.780451 41.951579 53.258041 171.121866 76.354261 -172.311739 0.000000 0.000000 0.000000 
1.082316 78.633904 -1.617718 0.000000 0.000000 0.000000 -26.418661 -56.341916 -10.166473 -23.686445 -1.558242 25.253323 40.081101 -14.785947 -6.012303 5.092140 2.524539 -16.201099 -12.497377 -1.735781 0.203514 0.000000 0.000000 0.000000 -25.239178 -53.393494 -9.308583 -19.751901 2.327957 -32.849146 57.462901 10.614847 -2.916216 -22.943181 -11.097977 22.836645 -4.073889 1.865360 -1.364441 0.000000 0.000000 0.000000 -23.907749 -46.112783 -10.031524 12.952541 5.495992 0.865723 13.711141 2.719379 -6.765305 1.721142 -0.371604 1.553880 0.000000 0.000000 0.000000 11.812101 2.176915 -5.019807 4.583225 -1.189506 -0.169570 -17.300014 29.141248 -11.804952 0.000000 0.000000 0.000000 15.263929 1.493927 -4.676732 1.664674 -11.916081 6.248502 -6.412251 -2.791772 -2.003333 -27.844303 25.521973 -57.616102 170.057736 -52.457584 172.507656 0.000000 0.000000 0.000000 13.194232 1.624030 -4.164263 12.735708 27.225587 -0.638011 -7.019192 -1.062200 2.986843 -56.760303 40.746535 53.935975 174.200450 74.174092 -175.243775 0.000000 0.000000 0.000000 
-0.459168 78.707909 -3.489544 0.000000 0.000000 0.000000 -19.923331 -52.619077 -4.416414 -29.706730 -2.365221 22.256960 31.723015 -13.720769 -5.913330 16.122204 -2.521155 -16.466445 -13.074376 -1.940642 0.637800 0.000000 0.000000 0.000000 -20.256336 -50.735171 -4.782639 -18.290019 1.743339 -32.493799 62.370432 9.763797 -3.214310 -25.617509 -13.182987 19.586046 -4.102407 1.324431 -0.427480 0.000000 0.000000 0.000000 -18.687503 -43.783500 -5.460812 15.306039 5.455534 -0.115699 14.172432 2.983175 -6.917867 2.242226 0.205528 2.045156 0.000000 0.000000 0.000000 12.454479 2.296699 -5.495492 3.571138 -0.848559 -1.145773 -18.138107 25.865402 -9.446143 0.000000 0.000000 0.000000 15.621459 1.684153 -5.013732 1.767793 -12.824303 4.815817 -5.184570 -4.161912 -1.289028 -30.314575 20.196717 -53.652806 169.995335 -54.013098 172.875571 0.000000 0.000000 0.000000 13.741629 1.744385 -4.681237 12.353093 26.065320 -1.308008 -7.714747 -0.509357 4.165694 -57.795292 37.271649 52.847243 177.871090 71.907159 -178.766172 0.000000 0.000000 0.000000 
-1.786939 79.382797 -5.669731 0.000000 0.000000 0.000000 -12.752656 -46.470104 1.467631 -37.203777 -3.724258 19.878789 23.277724 -13.097492 -5.441444 30.419818 -9.178845 -17.957168 -14.560008 -2.340685 2.020711 0.000000 0.000000 0.000000 -14.185603 -45.850660 0.416117 -16.324963 0.615612 -31.600714 64.913223 8.420367 -3.096914 -29.130309 -15.461448 15.041426 -3.646267 0.834106 0.746620 0.000000 0.000000 0.000000 -12.441532 -39.321194 -0.250691 19.519641 5.501760 -1.140694 14.602972 3.280230 -6.980864 2.389984 -0.075407 2.969877 0.000000 0.000000 0.000000 13.076086 2.613929 -5.936005 0.712975 -0.760740 -2.519123 -20.081881 21.203204 -6.046286 0.000000 0.000000 0.000000 15.656747 2.074663 -5.367858 1.798969 -14.423783 2.907186 -5.209162 -4.788389 -0.689639 -33.173006 12.387233 -48.368367 170.628890 -55.318959 174.282276 0.000000 0.000000 0.000000 14.365780 2.023522 -5.237872 12.132112 24.868821 -2.919004 -8.900482 -0.659847 5.217672 -58.862201 32.522212 49.454910 -178.850320 70.660998 178.150062 0.000000 0.000000 0.000000 
-2.941309 80.589844 -8.475735 0.000000 0.000000 0.000000 -6.591355 -38.790745 6.015226 -46.210943 -5.526412 17.939007 16.938272 -12.127461 -4.719584 44.204578 -14.664761 -18.199597 -14.756636 -2.596846 3.493139 0.000000 0.000000 0.000000 -8.318960 -39.156809 4.829816 -14.327087 -0.642650 -30.368063 63.981865 7.394344 -2.746348 -32.030473 -16.664743 11.630620 -3.108501 0.623728 1.667182 0.000000 0.000000 0.000000 -6.691054 -33.126018 4.209145 25.342514 5.430619 -1.914124 14.983524 3.481076 -6.822645 2.238244 0.107599 3.414454 0.000000 0.000000 0.000000 13.718212 2.934352 -6.045500 -3.311156 -0.917410 -4.042797 -22.365567 15.957204 -2.594447 0.000000 0.000000 0.000000 15.472520 2.486479 -5.493604 1.823944 -16.450564 1.368636 -5.651782 -4.464318 -0.397057 -36.871222 3.713952 -42.776338 171.953359 -56.880350 176.594678 0.000000 0.000000 0.000000 15.003144 2.282396 -5.577549 12.106141 23.982172 -5.687239 -9.841469 -0.909229 5.694753 -60.737553 27.174072 43.570518 -175.593987 71.757305 175.063855 0.000000 0.000000 0.000000 
-4.039247 81.813545 -11.334850 0.000000 0.000000 0.000000 -2.163880 -30.817127 8.883970 -55.600861 -7.047979 15.909075 13.621208 -10.176262 -4.104978 54.056228 -16.639691 -17.017666 -11.964173 -2.493420 3.829619 0.000000 0.000000 0.000000 -3.691919 -31.616826 7.773480 -12.810765 -2.032360 -29.162517 59.741254 6.897597 -2.205838 -33.205654 -16.749208 10.777433 -2.881034 0.726006 2.014900 0.000000 0.000000 0.000000 -2.695993 -26.635378 7.285636 32.221376 5.159370 -2.258912 15.286459 3.486420 -6.393564 1.997830 0.244031 3.621886 0.000000 0.000000 0.000000 14.350699 3.104443 -5.711207 -7.521446 -1.120188 -5.545446 -24.227110 11.072469 0.335612 0.000000 0.000000 0.000000 15.264800 2.741356 -5.243974 2.014166 -18.482278 1.039272 -5.938713 -3.617974 -0.280161 -42.934692 -4.602586 -38.226544 173.936546 -59.880248 179.601518 0.000000 0.000000 0.000000 15.525474 2.412079 -5.534711 12.274991 23.508149 -9.597447 -10.519605 -1.075315 5.383773 -64.216517 22.439666 35.527383 -170.897166 76.048173 170.460580 0.000000 0.000000 0.000000 
